<?xml version="1.0" encoding="utf-8"?>
<!-- Generator: Adobe Illustrator 22.0.1, SVG Export Plug-In . SVG Version: 6.00 Build 0)  -->
<svg version="1.1" id="flag-icon-css-fr" xmlns="http://www.w3.org/2000/svg" xmlns:xlink="http://www.w3.org/1999/xlink" x="0px"
	 y="0px" viewBox="0 0 512 348.1" enable-background="new 0 0 512 348.1" xml:space="preserve">
<g display="none">
	<path display="inline" fill="#FFFFFF" d="M0,0h512v348H0V0z"/>
	<path display="inline" fill="#00267F" d="M0,0h170.7v348H0V0z"/>
	<path display="inline" fill="#F31830" d="M341.3,0H512v348H341.3V0z"/>
</g>
<g>
	<path fill="#FFFFFF" d="M0,0h512v348H0V0z"/>
	<g>
		<polygon fill="#00247D" points="512,315.6 512,232.1 389.2,232.1 		"/>
		<polygon fill="#00247D" points="512,116.1 512,32.6 389.2,116.1 		"/>
		<polygon fill="#00247D" points="464.6,0 298.8,0 298.8,112.7 		"/>
		<polygon fill="#00247D" points="298.8,348 464.3,348 298.8,235.5 		"/>
		<polygon fill="#00247D" points="0,232.1 0,208.9 0,174.1 0,139.3 0,116.1 123.1,116.1 0,32.4 0,315.8 123.1,232.1 		"/>
		<polygon fill="#00247D" points="213.5,112.7 213.5,0 47.7,0 		"/>
		<polygon fill="#00247D" points="48,348 213.5,348 213.5,235.5 		"/>
		<polygon fill="#FFFFFF" points="47.7,0 0,0 170.8,116.1 0,0 170.8,116.1 142.2,116.1 0,19.5 0,0 0,0 0,32.4 123.1,116.1 0,116.1 
			0,139.3 230.5,139.3 230.5,0 213.5,0 213.5,112.7 		"/>
		<line fill="none" x1="512" y1="0.2" x2="341.5" y2="116.1"/>
		<line fill="none" x1="1.1" y1="347.5" x2="0.3" y2="348"/>
		<line fill="none" x1="0" y1="0" x2="170.8" y2="116.1"/>
		<polygon fill="#CF142B" points="170.8,232.1 0.3,348 28.9,348 199.4,232.1 		"/>
		<polygon fill="#CF142B" points="0,19.5 142.2,116.1 170.8,116.1 0,0 		"/>
		<polygon fill="#CF142B" points="341.5,232.1 512,348 512,328.5 370.1,232.1 		"/>
		<polygon fill="#CF142B" points="341.5,116.1 512,0.2 512,0 483.6,0 312.8,116.1 		"/>
		<polygon fill="#FFFFFF" points="230.5,208.9 0,208.9 0,232.1 123.1,232.1 0,315.8 0,348 0.3,348 1.1,347.5 0.3,348 170.8,232.1 
			199.4,232.1 28.9,348 48,348 213.5,235.5 213.5,348 230.5,348 		"/>
		<polygon fill="#FFFFFF" points="281.7,139.3 512,139.3 512,116.1 389.2,116.1 512,32.6 512,0.2 341.5,116.1 512,0.2 341.5,116.1 
			312.8,116.1 483.6,0 464.6,0 298.8,112.7 298.8,0 281.7,0 		"/>
		<polygon fill="#FFFFFF" points="281.7,208.9 281.7,348 298.8,348 298.8,235.5 464.3,348 512,348 512,348 341.5,232.1 370.1,232.1 
			512,328.5 512,315.6 389.2,232.1 512,232.1 512,208.9 		"/>
		<polygon fill="#CF142B" points="230.5,139.3 0,139.3 0,174.1 0,208.9 230.5,208.9 230.5,348 256.1,348 281.7,348 281.7,208.9 
			512,208.9 512,174.1 512,139.3 281.7,139.3 281.7,0 256.1,0 230.5,0 		"/>
	</g>
</g>
</svg>
